<svg width="273" height="106" viewBox="0 0 273 106" fill="none" xmlns="http://www.w3.org/2000/svg">
<path d="M50.6036 20.102C31.2956 2.14284 0 0 0 0V68.1633C29.4778 74.1837 50.6036 90 50.6036 90V20.102Z" fill="#7F54A5"/>
<path d="M56.7749 90C56.7749 90 77.9007 74.1837 107.379 68.1633V0C107.379 0 76.0829 2.14284 56.7749 20.102V90Z" fill="#A683C5"/>
<path d="M54.2577 95.9588C52.2595 95.9588 50.3101 95.2995 48.653 94.1331C43.0484 90.0761 27.8428 80.2884 4.93701 74V81.0491C4.93701 81.0491 31.0107 86.6276 48.8967 103.769C50.3588 105.189 52.3082 106 54.3064 106C56.3045 106 58.254 105.189 59.716 103.769C77.6021 86.6276 103.676 81.0491 103.676 81.0491V74C80.7212 80.2884 65.5643 90.1268 59.9597 94.1331C58.254 95.3503 56.3046 95.9588 54.2577 95.9588Z" fill="#65368E"/>
<path d="M124.768 34.816C125.451 34.816 125.941 34.7093 126.24 34.496C126.539 34.2827 126.688 33.9307 126.688 33.44V14.56C126.688 14.0693 126.539 13.7173 126.24 13.504C125.941 13.2907 125.451 13.184 124.768 13.184V12H132.384C136.331 12 138.304 14.2827 138.304 18.848V29.152C138.304 33.7173 136.331 36 132.384 36H124.768V34.816ZM132.384 13.28H130.272V34.72H132.384C133.109 34.72 133.685 34.4427 134.112 33.888C134.56 33.312 134.784 32.5653 134.784 31.648V16.352C134.784 15.4133 134.56 14.6667 134.112 14.112C133.685 13.5573 133.109 13.28 132.384 13.28ZM145.861 16.352V19.2C145.861 20.224 146.053 20.992 146.437 21.504C146.821 22.016 147.354 22.272 148.036 22.272H148.837V23.68H148.036C147.247 23.68 146.682 23.9147 146.341 24.384C146.021 24.8533 145.861 25.6853 145.861 26.88V31.808C145.861 32.7467 146.042 33.4933 146.405 34.048C146.789 34.6027 147.333 34.88 148.036 34.88C148.719 34.88 149.253 34.624 149.637 34.112C150.042 33.5787 150.245 32.8107 150.245 31.808V28.16C150.245 27.6053 150.373 27.168 150.629 26.848C150.906 26.528 151.418 26.368 152.165 26.368C152.869 26.368 153.402 26.272 153.765 26.08C154.149 25.888 154.415 25.696 154.565 25.504C154.714 25.312 154.789 25.216 154.789 25.216C154.127 25.216 153.562 25.0133 153.093 24.608C152.623 24.1813 152.389 23.6373 152.389 22.976C152.389 22.272 152.634 21.664 153.125 21.152C153.637 20.6187 154.234 20.352 154.917 20.352C155.535 20.352 156.111 20.5973 156.645 21.088C157.199 21.5787 157.477 22.1973 157.477 22.944C157.477 23.9893 157.114 24.96 156.389 25.856C155.685 26.752 154.778 27.36 153.669 27.68V29.312C153.669 31.616 153.221 33.3333 152.325 34.464C151.429 35.5947 149.999 36.16 148.036 36.16C146.01 36.16 144.517 35.584 143.557 34.432C142.597 33.28 142.117 31.5733 142.117 29.312V28.512C142.117 27.1893 142.287 26.0907 142.629 25.216C142.991 24.3413 143.685 23.6053 144.709 23.008C143.706 22.4107 143.023 21.7067 142.661 20.896C142.298 20.0853 142.117 19.0827 142.117 17.888C142.117 15.9893 142.661 14.4853 143.749 13.376C144.858 12.2667 146.469 11.712 148.581 11.712C149.007 11.712 149.455 11.6907 149.925 11.648C150.415 11.6053 150.799 11.3173 151.077 10.784H152.165L153.573 16.576L152.485 16.864C152.079 15.7973 151.706 14.9867 151.365 14.432C151.023 13.8773 150.661 13.504 150.277 13.312C149.914 13.0987 149.445 12.992 148.869 12.992C148.058 12.992 147.354 13.3227 146.757 13.984C146.159 14.624 145.861 15.4133 145.861 16.352ZM160.549 34.816C161.232 34.816 161.723 34.7093 162.021 34.496C162.32 34.2827 162.469 33.9307 162.469 33.44V14.56C162.469 14.0693 162.32 13.7173 162.021 13.504C161.723 13.2907 161.232 13.184 160.549 13.184V12H168.165C172.112 12 174.085 14.2827 174.085 18.848V29.152C174.085 33.7173 172.112 36 168.165 36H160.549V34.816ZM168.165 13.28H166.053V34.72H168.165C168.891 34.72 169.467 34.4427 169.893 33.888C170.341 33.312 170.565 32.5653 170.565 31.648V16.352C170.565 15.4133 170.341 14.6667 169.893 14.112C169.467 13.5573 168.891 13.28 168.165 13.28Z" fill="black"/>
<path d="M122.76 46.22V44H136.68V46.22C133.96 46.22 132.94 47.12 133.62 48.92L138.48 61.7L143.94 48.44C144.26 47.64 144.2 47.08 143.76 46.76C143.32 46.4 142.44 46.22 141.12 46.22V44H151.14V46.22C149.86 46.22 148.92 46.42 148.32 46.82C147.72 47.18 147.2 47.88 146.76 48.92L140.28 64.64L148.08 84.8C148.36 85.52 148.78 86.04 149.34 86.36C149.9 86.64 150.72 86.78 151.8 86.78V89H137.88V86.78C140.64 86.78 141.7 85.98 141.06 84.38L135.96 71.12L130.62 84.32C129.94 85.96 130.82 86.78 133.26 86.78V89H123.24V86.78C124.6 86.78 125.56 86.6 126.12 86.24C126.72 85.84 127.24 85.08 127.68 83.96L134.16 68.06L126.54 48.32C126.26 47.52 125.84 46.98 125.28 46.7C124.72 46.38 123.88 46.22 122.76 46.22ZM153.335 86.78C154.615 86.78 155.535 86.58 156.095 86.18C156.655 85.78 156.935 85.12 156.935 84.2V48.8C156.935 47.88 156.655 47.22 156.095 46.82C155.535 46.42 154.615 46.22 153.335 46.22V44H168.695C176.215 44 179.975 48.26 179.975 56.78V60.56C179.975 69.04 176.215 73.28 168.695 73.28H166.055V70.88H168.695C170.015 70.88 171.075 70.34 171.875 69.26C172.675 68.18 173.075 66.76 173.075 65V52.16C173.075 50.44 172.655 49.06 171.815 48.02C171.015 46.94 169.975 46.4 168.695 46.4H163.655V84.2C163.655 85.12 163.935 85.78 164.495 86.18C165.055 86.58 165.975 86.78 167.255 86.78V89H153.335V86.78ZM182.978 86.78C184.258 86.78 185.178 86.58 185.738 86.18C186.298 85.78 186.578 85.12 186.578 84.2V48.8C186.578 47.88 186.298 47.22 185.738 46.82C185.178 46.42 184.258 46.22 182.978 46.22V44H197.138C200.738 44 203.478 44.96 205.358 46.88C207.278 48.8 208.238 51.58 208.238 55.22C208.238 57.74 207.878 59.74 207.158 61.22C206.438 62.7 205.198 63.96 203.438 65C205.598 66.12 207.158 67.58 208.118 69.38C209.118 71.14 209.618 73.42 209.618 76.22C209.618 80.58 208.698 83.8 206.858 85.88C205.018 87.96 202.178 89 198.338 89H182.978V86.78ZM197.138 46.4H193.298V86.6H198.338C199.658 86.6 200.718 86.08 201.518 85.04C202.318 83.96 202.718 82.56 202.718 80.84V72.38C202.718 70.62 202.318 69.2 201.518 68.12C200.718 67.04 199.658 66.5 198.338 66.5H195.758V64.1H197.138C198.458 64.1 199.518 63.56 200.318 62.48C201.118 61.4 201.518 59.98 201.518 58.22V52.16C201.518 50.4 201.118 49 200.318 47.96C199.558 46.92 198.498 46.4 197.138 46.4ZM217.486 84.14C217.326 84.98 217.546 85.64 218.146 86.12C218.786 86.56 219.766 86.78 221.086 86.78V89H211.066V86.78C212.226 86.78 213.086 86.58 213.646 86.18C214.206 85.78 214.586 85.1 214.786 84.14L223.786 43.16H226.666L235.966 84.26C236.166 85.26 236.506 85.94 236.986 86.3C237.506 86.62 238.366 86.78 239.566 86.78V89H225.646V86.78C227.086 86.78 228.086 86.6 228.646 86.24C229.246 85.84 229.446 85.2 229.246 84.32L227.986 78.26H218.746L217.486 84.14ZM219.286 75.86H227.446L223.486 56.72L219.286 75.86ZM241.279 86.78C242.559 86.78 243.479 86.58 244.039 86.18C244.599 85.78 244.879 85.12 244.879 84.2V48.8C244.879 47.88 244.599 47.22 244.039 46.82C243.479 46.42 242.559 46.22 241.279 46.22V44H256.279C263.799 44 267.559 48.3 267.559 56.9C267.559 59.82 267.119 62.18 266.239 63.98C265.399 65.78 263.919 67.3 261.799 68.54C263.719 69.78 265.099 71.32 265.939 73.16C266.779 74.96 267.199 77.26 267.199 80.06V80.84C267.199 82.6 267.599 84.04 268.399 85.16C269.199 86.24 270.259 86.78 271.579 86.78H272.239V89H271.579C267.699 89 264.839 88.06 262.999 86.18C261.199 84.26 260.299 81.3 260.299 77.3V75.62C260.299 73.86 259.879 72.42 259.039 71.3C258.239 70.18 257.199 69.62 255.919 69.62H254.479V67.22H256.279C257.639 67.22 258.719 66.68 259.519 65.6C260.359 64.52 260.779 63.1 260.779 61.34V52.16C260.779 50.4 260.379 49 259.579 47.96C258.779 46.92 257.679 46.4 256.279 46.4H251.599V84.2C251.599 85.12 251.879 85.78 252.439 86.18C252.999 86.58 253.919 86.78 255.199 86.78V89H241.279V86.78Z" fill="black"/>
</svg>
