<svg width="137" height="58" viewBox="0 0 137 58" fill="none" xmlns="http://www.w3.org/2000/svg">
<path d="M25.3018 10.051C15.6478 1.07142 0 0 0 0V34.0816C14.7389 37.0918 25.3018 45 25.3018 45V10.051Z" fill="#7F54A5"/>
<path d="M28.3874 45C28.3874 45 38.9503 37.0918 53.6892 34.0816V0C53.6892 0 38.0414 1.07142 28.3874 10.051V45Z" fill="#A683C5"/>
<path d="M27.1288 47.9794C26.1297 47.9794 25.155 47.6498 24.3265 47.0666C21.5242 45.038 13.9214 40.1442 2.46844 37V40.5246C2.46844 40.5246 15.5053 43.3138 24.4483 51.8843C25.1793 52.5943 26.154 53 27.1531 53C28.1522 53 29.1269 52.5943 29.858 51.8843C38.801 43.3138 51.8378 40.5246 51.8378 40.5246V37C40.3605 40.1442 32.7821 45.0634 29.9798 47.0666C29.1269 47.6751 28.1522 47.9794 27.1288 47.9794Z" fill="#65368E"/>
<path d="M62.384 17.408C62.7253 17.408 62.9707 17.3547 63.12 17.248C63.2693 17.1413 63.344 16.9653 63.344 16.72V7.28C63.344 7.03467 63.2693 6.85867 63.12 6.752C62.9707 6.64533 62.7253 6.592 62.384 6.592V6H66.192C68.1653 6 69.152 7.14133 69.152 9.424V14.576C69.152 16.8587 68.1653 18 66.192 18H62.384V17.408ZM66.192 6.64H65.136V17.36H66.192C66.5547 17.36 66.8427 17.2213 67.056 16.944C67.28 16.656 67.392 16.2827 67.392 15.824V8.176C67.392 7.70667 67.28 7.33333 67.056 7.056C66.8427 6.77867 66.5547 6.64 66.192 6.64ZM72.9303 8.176V9.6C72.9303 10.112 73.0263 10.496 73.2183 10.752C73.4103 11.008 73.6769 11.136 74.0182 11.136H74.4183V11.84H74.0182C73.6236 11.84 73.3409 11.9573 73.1703 12.192C73.0103 12.4267 72.9303 12.8427 72.9303 13.44V15.904C72.9303 16.3733 73.0209 16.7467 73.2023 17.024C73.3943 17.3013 73.6663 17.44 74.0182 17.44C74.3596 17.44 74.6263 17.312 74.8183 17.056C75.0209 16.7893 75.1223 16.4053 75.1223 15.904V14.08C75.1223 13.8027 75.1863 13.584 75.3143 13.424C75.4529 13.264 75.7089 13.184 76.0823 13.184C76.4343 13.184 76.7009 13.136 76.8823 13.04C77.0743 12.944 77.2076 12.848 77.2823 12.752C77.3569 12.656 77.3943 12.608 77.3943 12.608C77.0636 12.608 76.7809 12.5067 76.5463 12.304C76.3116 12.0907 76.1943 11.8187 76.1943 11.488C76.1943 11.136 76.3169 10.832 76.5623 10.576C76.8183 10.3093 77.1169 10.176 77.4583 10.176C77.7676 10.176 78.0556 10.2987 78.3223 10.544C78.5996 10.7893 78.7383 11.0987 78.7383 11.472C78.7383 11.9947 78.5569 12.48 78.1943 12.928C77.8423 13.376 77.3889 13.68 76.8343 13.84V14.656C76.8343 15.808 76.6103 16.6667 76.1623 17.232C75.7143 17.7973 74.9996 18.08 74.0182 18.08C73.0049 18.08 72.2583 17.792 71.7783 17.216C71.2983 16.64 71.0583 15.7867 71.0583 14.656V14.256C71.0583 13.5947 71.1436 13.0453 71.3143 12.608C71.4956 12.1707 71.8423 11.8027 72.3543 11.504C71.8529 11.2053 71.5116 10.8533 71.3303 10.448C71.1489 10.0427 71.0583 9.54133 71.0583 8.944C71.0583 7.99467 71.3303 7.24267 71.8743 6.688C72.4289 6.13333 73.2343 5.856 74.2903 5.856C74.5036 5.856 74.7276 5.84533 74.9623 5.824C75.2076 5.80267 75.3996 5.65867 75.5383 5.392H76.0823L76.7863 8.288L76.2423 8.432C76.0396 7.89867 75.8529 7.49333 75.6823 7.216C75.5116 6.93867 75.3303 6.752 75.1383 6.656C74.9569 6.54933 74.7223 6.496 74.4343 6.496C74.0289 6.496 73.6769 6.66133 73.3783 6.992C73.0796 7.312 72.9303 7.70667 72.9303 8.176ZM80.2746 17.408C80.616 17.408 80.8613 17.3547 81.0106 17.248C81.16 17.1413 81.2346 16.9653 81.2346 16.72V7.28C81.2346 7.03467 81.16 6.85867 81.0106 6.752C80.8613 6.64533 80.616 6.592 80.2746 6.592V6H84.0826C86.056 6 87.0426 7.14133 87.0426 9.424V14.576C87.0426 16.8587 86.056 18 84.0826 18H80.2746V17.408ZM84.0826 6.64H83.0266V17.36H84.0826C84.4453 17.36 84.7333 17.2213 84.9466 16.944C85.1706 16.656 85.2826 16.2827 85.2826 15.824V8.176C85.2826 7.70667 85.1706 7.33333 84.9466 7.056C84.7333 6.77867 84.4453 6.64 84.0826 6.64Z" fill="black"/>
<path d="M61.5917 22.61V21.5H68.5517V22.61C67.1917 22.61 66.6817 23.06 67.0217 23.96L69.4517 30.35L72.1817 23.72C72.3417 23.32 72.3117 23.04 72.0917 22.88C71.8717 22.7 71.4317 22.61 70.7717 22.61V21.5H75.7817V22.61C75.1417 22.61 74.6717 22.71 74.3717 22.91C74.0717 23.09 73.8117 23.44 73.5917 23.96L70.3517 31.82L74.2517 41.9C74.3917 42.26 74.6017 42.52 74.8817 42.68C75.1617 42.82 75.5717 42.89 76.1117 42.89V44H69.1517V42.89C70.5317 42.89 71.0617 42.49 70.7417 41.69L68.1917 35.06L65.5217 41.66C65.1817 42.48 65.6217 42.89 66.8417 42.89V44H61.8317V42.89C62.5117 42.89 62.9917 42.8 63.2717 42.62C63.5717 42.42 63.8317 42.04 64.0517 41.48L67.2917 33.53L63.4817 23.66C63.3417 23.26 63.1317 22.99 62.8517 22.85C62.5717 22.69 62.1517 22.61 61.5917 22.61ZM76.8792 42.89C77.5192 42.89 77.9792 42.79 78.2592 42.59C78.5392 42.39 78.6792 42.06 78.6792 41.6V23.9C78.6792 23.44 78.5392 23.11 78.2592 22.91C77.9792 22.71 77.5192 22.61 76.8792 22.61V21.5H84.5592C88.3192 21.5 90.1992 23.63 90.1992 27.89V29.78C90.1992 34.02 88.3192 36.14 84.5592 36.14H83.2392V34.94H84.5592C85.2192 34.94 85.7492 34.67 86.1492 34.13C86.5492 33.59 86.7492 32.88 86.7492 32V25.58C86.7492 24.72 86.5392 24.03 86.1192 23.51C85.7192 22.97 85.1992 22.7 84.5592 22.7H82.0392V41.6C82.0392 42.06 82.1792 42.39 82.4592 42.59C82.7392 42.79 83.1992 42.89 83.8392 42.89V44H76.8792V42.89ZM91.7007 42.89C92.3407 42.89 92.8007 42.79 93.0807 42.59C93.3607 42.39 93.5007 42.06 93.5007 41.6V23.9C93.5007 23.44 93.3607 23.11 93.0807 22.91C92.8007 22.71 92.3407 22.61 91.7007 22.61V21.5H98.7807C100.581 21.5 101.951 21.98 102.891 22.94C103.851 23.9 104.331 25.29 104.331 27.11C104.331 28.37 104.151 29.37 103.791 30.11C103.431 30.85 102.811 31.48 101.931 32C103.011 32.56 103.791 33.29 104.271 34.19C104.771 35.07 105.021 36.21 105.021 37.61C105.021 39.79 104.561 41.4 103.641 42.44C102.721 43.48 101.301 44 99.3807 44H91.7007V42.89ZM98.7807 22.7H96.8607V42.8H99.3807C100.041 42.8 100.571 42.54 100.971 42.02C101.371 41.48 101.571 40.78 101.571 39.92V35.69C101.571 34.81 101.371 34.1 100.971 33.56C100.571 33.02 100.041 32.75 99.3807 32.75H98.0907V31.55H98.7807C99.4407 31.55 99.9707 31.28 100.371 30.74C100.771 30.2 100.971 29.49 100.971 28.61V25.58C100.971 24.7 100.771 24 100.371 23.48C99.9907 22.96 99.4607 22.7 98.7807 22.7ZM108.955 41.57C108.875 41.99 108.985 42.32 109.285 42.56C109.605 42.78 110.095 42.89 110.755 42.89V44H105.745V42.89C106.325 42.89 106.755 42.79 107.035 42.59C107.315 42.39 107.505 42.05 107.605 41.57L112.105 21.08H113.545L118.195 41.63C118.295 42.13 118.465 42.47 118.705 42.65C118.965 42.81 119.395 42.89 119.995 42.89V44H113.035V42.89C113.755 42.89 114.255 42.8 114.535 42.62C114.835 42.42 114.935 42.1 114.835 41.66L114.205 38.63H109.585L108.955 41.57ZM109.855 37.43H113.935L111.955 27.86L109.855 37.43ZM120.851 42.89C121.491 42.89 121.951 42.79 122.231 42.59C122.511 42.39 122.651 42.06 122.651 41.6V23.9C122.651 23.44 122.511 23.11 122.231 22.91C121.951 22.71 121.491 22.61 120.851 22.61V21.5H128.351C132.111 21.5 133.991 23.65 133.991 27.95C133.991 29.41 133.771 30.59 133.331 31.49C132.911 32.39 132.171 33.15 131.111 33.77C132.071 34.39 132.761 35.16 133.181 36.08C133.601 36.98 133.811 38.13 133.811 39.53V39.92C133.811 40.8 134.011 41.52 134.411 42.08C134.811 42.62 135.341 42.89 136.001 42.89H136.331V44H136.001C134.061 44 132.631 43.53 131.711 42.59C130.811 41.63 130.361 40.15 130.361 38.15V37.31C130.361 36.43 130.151 35.71 129.731 35.15C129.331 34.59 128.811 34.31 128.171 34.31H127.451V33.11H128.351C129.031 33.11 129.571 32.84 129.971 32.3C130.391 31.76 130.601 31.05 130.601 30.17V25.58C130.601 24.7 130.401 24 130.001 23.48C129.601 22.96 129.051 22.7 128.351 22.7H126.011V41.6C126.011 42.06 126.151 42.39 126.431 42.59C126.711 42.79 127.171 42.89 127.811 42.89V44H120.851V42.89Z" fill="black"/>
</svg>
