<svg width="274" height="116" viewBox="0 0 274 116" fill="none" xmlns="http://www.w3.org/2000/svg">
<path d="M50.6036 20.102C31.2956 2.14284 0 0 0 0V68.1633C29.4778 74.1837 50.6036 90 50.6036 90V20.102Z" fill="#7F54A5"/>
<path d="M56.7749 90C56.7749 90 77.9007 74.1837 107.379 68.1633V0C107.379 0 76.0829 2.14284 56.7749 20.102V90Z" fill="#A683C5"/>
<path d="M54.2577 95.9588C52.2595 95.9588 50.3101 95.2995 48.653 94.1331C43.0484 90.0761 27.8428 80.2884 4.93701 74V81.0491C4.93701 81.0491 31.0107 86.6276 48.8967 103.769C50.3588 105.189 52.3082 106 54.3064 106C56.3045 106 58.254 105.189 59.716 103.769C77.6021 86.6276 103.676 81.0491 103.676 81.0491V74C80.7212 80.2884 65.5643 90.1268 59.9597 94.1331C58.254 95.3503 56.3046 95.9588 54.2577 95.9588Z" fill="#65368E"/>
<path d="M124.768 34.816C125.451 34.816 125.941 34.7093 126.24 34.496C126.539 34.2827 126.688 33.9307 126.688 33.44V14.56C126.688 14.0693 126.539 13.7173 126.24 13.504C125.941 13.2907 125.451 13.184 124.768 13.184V12H132.384C136.331 12 138.304 14.2827 138.304 18.848V29.152C138.304 33.7173 136.331 36 132.384 36H124.768V34.816ZM132.384 13.28H130.272V34.72H132.384C133.109 34.72 133.685 34.4427 134.112 33.888C134.56 33.312 134.784 32.5653 134.784 31.648V16.352C134.784 15.4133 134.56 14.6667 134.112 14.112C133.685 13.5573 133.109 13.28 132.384 13.28ZM145.861 16.352V19.2C145.861 20.224 146.053 20.992 146.437 21.504C146.821 22.016 147.354 22.272 148.036 22.272H148.837V23.68H148.036C147.247 23.68 146.682 23.9147 146.341 24.384C146.021 24.8533 145.861 25.6853 145.861 26.88V31.808C145.861 32.7467 146.042 33.4933 146.405 34.048C146.789 34.6027 147.333 34.88 148.036 34.88C148.719 34.88 149.253 34.624 149.637 34.112C150.042 33.5787 150.245 32.8107 150.245 31.808V28.16C150.245 27.6053 150.373 27.168 150.629 26.848C150.906 26.528 151.418 26.368 152.165 26.368C152.869 26.368 153.402 26.272 153.765 26.08C154.149 25.888 154.415 25.696 154.565 25.504C154.714 25.312 154.789 25.216 154.789 25.216C154.127 25.216 153.562 25.0133 153.093 24.608C152.623 24.1813 152.389 23.6373 152.389 22.976C152.389 22.272 152.634 21.664 153.125 21.152C153.637 20.6187 154.234 20.352 154.917 20.352C155.535 20.352 156.111 20.5973 156.645 21.088C157.199 21.5787 157.477 22.1973 157.477 22.944C157.477 23.9893 157.114 24.96 156.389 25.856C155.685 26.752 154.778 27.36 153.669 27.68V29.312C153.669 31.616 153.221 33.3333 152.325 34.464C151.429 35.5947 149.999 36.16 148.036 36.16C146.01 36.16 144.517 35.584 143.557 34.432C142.597 33.28 142.117 31.5733 142.117 29.312V28.512C142.117 27.1893 142.287 26.0907 142.629 25.216C142.991 24.3413 143.685 23.6053 144.709 23.008C143.706 22.4107 143.023 21.7067 142.661 20.896C142.298 20.0853 142.117 19.0827 142.117 17.888C142.117 15.9893 142.661 14.4853 143.749 13.376C144.858 12.2667 146.469 11.712 148.581 11.712C149.007 11.712 149.455 11.6907 149.925 11.648C150.415 11.6053 150.799 11.3173 151.077 10.784H152.165L153.573 16.576L152.485 16.864C152.079 15.7973 151.706 14.9867 151.365 14.432C151.023 13.8773 150.661 13.504 150.277 13.312C149.914 13.0987 149.445 12.992 148.869 12.992C148.058 12.992 147.354 13.3227 146.757 13.984C146.159 14.624 145.861 15.4133 145.861 16.352ZM160.549 34.816C161.232 34.816 161.723 34.7093 162.021 34.496C162.32 34.2827 162.469 33.9307 162.469 33.44V14.56C162.469 14.0693 162.32 13.7173 162.021 13.504C161.723 13.2907 161.232 13.184 160.549 13.184V12H168.165C172.112 12 174.085 14.2827 174.085 18.848V29.152C174.085 33.7173 172.112 36 168.165 36H160.549V34.816ZM168.165 13.28H166.053V34.72H168.165C168.891 34.72 169.467 34.4427 169.893 33.888C170.341 33.312 170.565 32.5653 170.565 31.648V16.352C170.565 15.4133 170.341 14.6667 169.893 14.112C169.467 13.5573 168.891 13.28 168.165 13.28Z" fill="black"/>
<path d="M123.183 46.22V44H137.103V46.22C134.383 46.22 133.363 47.12 134.043 48.92L138.903 61.7L144.363 48.44C144.683 47.64 144.623 47.08 144.183 46.76C143.743 46.4 142.863 46.22 141.543 46.22V44H151.563V46.22C150.283 46.22 149.343 46.42 148.743 46.82C148.143 47.18 147.623 47.88 147.183 48.92L140.703 64.64L148.503 84.8C148.783 85.52 149.203 86.04 149.763 86.36C150.323 86.64 151.143 86.78 152.223 86.78V89H138.303V86.78C141.063 86.78 142.123 85.98 141.483 84.38L136.383 71.12L131.043 84.32C130.363 85.96 131.243 86.78 133.683 86.78V89H123.663V86.78C125.023 86.78 125.983 86.6 126.543 86.24C127.143 85.84 127.663 85.08 128.103 83.96L134.583 68.06L126.963 48.32C126.683 47.52 126.263 46.98 125.703 46.7C125.143 46.38 124.303 46.22 123.183 46.22ZM153.758 86.78C155.038 86.78 155.958 86.58 156.518 86.18C157.078 85.78 157.358 85.12 157.358 84.2V48.8C157.358 47.88 157.078 47.22 156.518 46.82C155.958 46.42 155.038 46.22 153.758 46.22V44H169.118C176.638 44 180.398 48.26 180.398 56.78V60.56C180.398 69.04 176.638 73.28 169.118 73.28H166.478V70.88H169.118C170.438 70.88 171.498 70.34 172.298 69.26C173.098 68.18 173.498 66.76 173.498 65V52.16C173.498 50.44 173.078 49.06 172.238 48.02C171.438 46.94 170.398 46.4 169.118 46.4H164.078V84.2C164.078 85.12 164.358 85.78 164.918 86.18C165.478 86.58 166.398 86.78 167.678 86.78V89H153.758V86.78ZM183.401 86.78C184.681 86.78 185.601 86.58 186.161 86.18C186.721 85.78 187.001 85.12 187.001 84.2V48.8C187.001 47.88 186.721 47.22 186.161 46.82C185.601 46.42 184.681 46.22 183.401 46.22V44H197.561C201.161 44 203.901 44.96 205.781 46.88C207.701 48.8 208.661 51.58 208.661 55.22C208.661 57.74 208.301 59.74 207.581 61.22C206.861 62.7 205.621 63.96 203.861 65C206.021 66.12 207.581 67.58 208.541 69.38C209.541 71.14 210.041 73.42 210.041 76.22C210.041 80.58 209.121 83.8 207.281 85.88C205.441 87.96 202.601 89 198.761 89H183.401V86.78ZM197.561 46.4H193.721V86.6H198.761C200.081 86.6 201.141 86.08 201.941 85.04C202.741 83.96 203.141 82.56 203.141 80.84V72.38C203.141 70.62 202.741 69.2 201.941 68.12C201.141 67.04 200.081 66.5 198.761 66.5H196.181V64.1H197.561C198.881 64.1 199.941 63.56 200.741 62.48C201.541 61.4 201.941 59.98 201.941 58.22V52.16C201.941 50.4 201.541 49 200.741 47.96C199.981 46.92 198.921 46.4 197.561 46.4ZM217.91 84.14C217.75 84.98 217.97 85.64 218.57 86.12C219.21 86.56 220.19 86.78 221.51 86.78V89H211.49V86.78C212.65 86.78 213.51 86.58 214.07 86.18C214.63 85.78 215.01 85.1 215.21 84.14L224.21 43.16H227.09L236.39 84.26C236.59 85.26 236.93 85.94 237.41 86.3C237.93 86.62 238.79 86.78 239.99 86.78V89H226.07V86.78C227.51 86.78 228.51 86.6 229.07 86.24C229.67 85.84 229.87 85.2 229.67 84.32L228.41 78.26H219.17L217.91 84.14ZM219.71 75.86H227.87L223.91 56.72L219.71 75.86ZM241.702 86.78C242.982 86.78 243.902 86.58 244.462 86.18C245.022 85.78 245.302 85.12 245.302 84.2V48.8C245.302 47.88 245.022 47.22 244.462 46.82C243.902 46.42 242.982 46.22 241.702 46.22V44H256.702C264.222 44 267.982 48.3 267.982 56.9C267.982 59.82 267.542 62.18 266.662 63.98C265.822 65.78 264.342 67.3 262.222 68.54C264.142 69.78 265.522 71.32 266.362 73.16C267.202 74.96 267.622 77.26 267.622 80.06V80.84C267.622 82.6 268.022 84.04 268.822 85.16C269.622 86.24 270.682 86.78 272.002 86.78H272.662V89H272.002C268.122 89 265.262 88.06 263.422 86.18C261.622 84.26 260.722 81.3 260.722 77.3V75.62C260.722 73.86 260.302 72.42 259.462 71.3C258.662 70.18 257.622 69.62 256.342 69.62H254.902V67.22H256.702C258.062 67.22 259.142 66.68 259.942 65.6C260.782 64.52 261.202 63.1 261.202 61.34V52.16C261.202 50.4 260.802 49 260.002 47.96C259.202 46.92 258.102 46.4 256.702 46.4H252.022V84.2C252.022 85.12 252.302 85.78 252.862 86.18C253.422 86.58 254.342 86.78 255.622 86.78V89H241.702V86.78Z" fill="black"/>
</svg>
