<?xml version="1.0" encoding="utf-8"?>
<!-- Generator: Adobe Illustrator 23.0.4, SVG Export Plug-In . SVG Version: 6.00 Build 0)  -->
<svg version="1.1" id="Layer_1" xmlns="http://www.w3.org/2000/svg" xmlns:xlink="http://www.w3.org/1999/xlink" x="0px" y="0px"
	 viewBox="0 -30 100 125" style="enable-background:new 0 0 100 125;" xml:space="preserve">
<style type="text/css">
	.st0{fill:#FFC10C;}
</style>
<title>casco fantasy 2</title>
<path class="st0" d="M18.3,56.8c-2.2-1.7-4.2-3.3-5.4-5.1c-1.9-2.9-3.2-7.6-1.8-11c0.8-2,2.6-3.4,4.7-3.8c0.9-0.2,1.9-0.2,2.8-0.1
	l2.7-9.3c-5.1-0.9-11.7-0.7-15.6,4.6c-7.4,10.2-1.6,20.5,6.3,26.8c1.2,0.9,2.4,1.8,3.6,2.7c4.4,3.2,8.5,6.2,8.8,10
	c0.1,2.1-1,4.3-3.3,6.5c0,0-0.1,0.1-0.1,0.1c0.7-0.1,1.4-0.3,2-0.7c1.2-0.7,3.9-2.9,3.9-8.1C27,63.7,22.4,60,18.3,56.8z"/>
<path class="st0" d="M21,76.8c1.7-1.8,2.5-3.5,2.4-5.1c-0.1-1-0.5-2-1.1-2.8c-0.3,2.3-1.1,4.6-2.1,6.6C19.9,75.9,20.8,77,21,76.8z"
	/>
<path class="st0" d="M79,76.8c-1.7-1.8-2.5-3.5-2.4-5.1c0.1-1,0.5-2,1.1-2.8c0.3,2.3,1.1,4.6,2.1,6.6C80.1,75.9,79.2,77,79,76.8z"/>
<path class="st0" d="M24.9,26.1l-2.3,1l-3.1,10.8l1.8,4.2C21.1,36.6,22.4,31,24.9,26.1z"/>
<path class="st0" d="M81.7,56.8c2.2-1.7,4.2-3.3,5.4-5.1c1.9-2.9,3.2-7.6,1.8-11c-0.8-2-2.6-3.4-4.7-3.8c-0.9-0.2-1.9-0.2-2.8-0.1
	l-2.7-9.3c5.1-0.9,11.7-0.7,15.6,4.6c7.4,10.2,1.6,20.5-6.3,26.8c-1.2,0.9-2.4,1.8-3.6,2.7c-4.4,3.2-8.5,6.2-8.8,10
	c-0.1,2.1,1,4.3,3.3,6.5c0,0,0.1,0.1,0.1,0.1c-0.7-0.1-1.4-0.3-2-0.7c-1.2-0.7-3.9-2.9-3.9-8.1C73,63.7,77.6,60,81.7,56.8z"/>
<path class="st0" d="M75.1,26.1l2.3,1l3.1,10.8l-1.8,4.2C78.9,36.6,77.6,31,75.1,26.1z"/>
<path class="st0" d="M18.3,56.8c-2.2-1.7-4.2-3.3-5.4-5.1c-1.9-2.9-3.2-7.6-1.8-11c0.8-2,2.6-3.4,4.7-3.8c0.9-0.2,1.9-0.2,2.8-0.1
	l2.7-9.3c-5.1-0.9-11.7-0.7-15.6,4.6c-7.4,10.2-1.6,20.5,6.3,26.8c1.2,0.9,2.4,1.8,3.6,2.7c4.4,3.2,8.5,6.2,8.8,10
	c0.1,2.1-1,4.3-3.3,6.5c0,0-0.1,0.1-0.1,0.1c0.7-0.1,1.4-0.3,2-0.7c1.2-0.7,3.9-2.9,3.9-8.1C27,63.7,22.4,60,18.3,56.8z"/>
<path class="st0" d="M24.9,26.1l-2.3,1l-3.1,10.8l1.8,4.2C21.1,36.6,22.4,31,24.9,26.1z"/>
<path class="st0" d="M50,48.7c1.8-0.8,3.6-5.7,4.5-8.6c-1.4,0.8-2.9,1.3-4.5,1.5c-1.6-0.2-3.1-0.7-4.4-1.5
	C46.6,43.5,48.4,47.9,50,48.7z"/>
<path class="st0" d="M50,6L50,6c-0.5,0.2-30,11.2-27.6,38.2c0.5,5.1,0.7,10.2,0.6,15.3c2.8,2.6,5,5.7,4.9,9.9c0,3.5-1.6,6.9-4.4,9
	c3.4,3.1,14.5,5.7,18.5,9.7c-0.4-4.5-1.6-20.1-1.6-26.7c0-2.1-1.1-4-2.8-5.2c-2.5-1.9-6-2.5-7.8-2l-0.6,0.2l-0.1-0.6
	c-0.3-1.2-0.8-2.3-1.3-3.4c-1.4-3.3-3.2-7.4-2.5-9.9c0.7-2.5,6.1-1.3,14.3,0.9c2.1,0.6,4.1,1.1,5.7,1.4c-0.7-1.8-1.1-3.3-1.2-3.7
	l-0.3-1.2l1,0.6c1.4,0.8,2.9,1.4,4.4,1.9l0.5-25c0,0,0-0.1,0.1-0.1c0,0,0.1,0,0.1,0.1l0.5,25c1.6-0.4,3-1,4.4-1.9l1-0.6l-0.3,1.1
	c-0.1,0.4-0.5,1.9-1.1,3.7c1.5-0.3,3.5-0.8,5.6-1.4c8.2-2.2,13.6-3.4,14.3-0.9c0.7,2.5-1.1,6.6-2.5,9.9c-0.5,1.1-1,2.2-1.3,3.4
	l-0.1,0.6L70,54.2c-1.7-0.5-5.2,0.1-7.8,2c-1.7,1.2-2.8,3.1-2.8,5.2c0,6.7-1.2,22.3-1.6,26.7c4-4,15.2-6.7,18.5-9.7
	c-2.8-2.1-4.5-5.5-4.4-9c0-4.2,2.2-7.3,4.9-9.9c-0.1-5.1,0.2-10.2,0.6-15.3C80,17.1,50.5,6.1,50,6z"/>
<path class="st0" d="M32.3,47.5c0.3,0.3-1.3-2.9-1.3-2.9c7,0.3,6,1,16.6,2.8c-0.6-1.1-1.2-2.2-1.7-3.4c-1.6-0.3-3.8-0.9-6.3-1.5
	c-4.7-1.3-12.6-3.4-13.1-1.6c-0.6,2.2,1.2,6.2,2.4,9.2c0.5,1,0.9,2.1,1.2,3.1c2.9-0.3,5.8,0.5,8.1,2.2c2,1.3,3.2,3.6,3.2,6
	c0,6.8,1.4,26,1.7,30c1.8,0.5,2.9,2.7,2.9,2.7c-0.8-5,1.2-40.7,1.2-40.7S37.3,51.9,32.3,47.5z"/>
<path class="st0" d="M61.7,55.4c2.3-1.7,5.2-2.5,8.1-2.2c0.4-1.1,0.8-2.1,1.2-3.1c1.3-3,3.1-7.1,2.4-9.2c-0.5-1.8-8.4,0.4-13.1,1.6
	c-2.4,0.7-4.6,1.2-6.3,1.5c-0.4,1.2-1,2.3-1.6,3.4c10.5-1.7,9.6-2.5,16.5-2.8c0,0-1.6,3.2-1.3,2.9c-5,4.4-15,5.8-15,5.8
	s1.9,35.7,1.2,40.7c0,0,1.1-2.2,2.9-2.7c0.3-3.9,1.7-23.2,1.7-30C58.5,59,59.7,56.7,61.7,55.4z"/>
</svg>
