<svg id="svg2" xmlns="http://www.w3.org/2000/svg" height="100" width="100" viewBox="0 -55 90 115"><defs><style>.cls-1{fill:#ffc10c;fill-rule:evenodd;}</style></defs><title>pirate_ship</title><path id="path12357" class="cls-1" d="M46.5,36.25,0,76.75v.5l18.5,11-2.5,2,11,10H91v-5l.5-1.5,3-1.5,1.5-3.5-.5-6.5v-2.5l1-3-20-25.5,1.5-5v-.5l-5,1-6.5-8.5-1-.5-18-1.5Zm0,.5v10l-11,2.5v.5a18.1,18.1,0,0,0,1,16v1c-2,4.5-1,9.5,1.5,13.5H37l-2,2c-9-14-8.5-27.5-.5-35C42,40.25,46.5,36.75,46.5,36.75Zm1,0,18,1.5v10L56,50.75v.5h.5l-1.5,7c-2.5-3.5-.5-9,1.5-12.5v-.5L47.75,46.5Zm19,2,6,8L66.75,48Zm-12,7.5-6.75,2.5V47.5ZM77,46.5l-3,1.25-.5-.5Zm-4,1,.5.5-6.75,2.25V49Zm-26.5.25v1c-2.5,1-5.5,1.5-8,.5Zm19,1.5v1l-6.5.5Zm11,2.5,19.5,25-12,2-3.5,2.5c-2-5-1-11,.5-16h.5v-1H81C77.5,60.75,75.5,56.75,76.5,51.75Zm-22,11-6,1v-.5Zm-7.5.5V64l-9,1.75C40.56,63.66,44.46,63.44,47,63.25Zm8.5.25-7,2.25v-1ZM47,65v1.25a21.52,21.52,0,0,1-8,0Zm32-.25-11,1.5v-1C71.5,64.5,75.25,64.75,79,64.75Zm1,.5a29,29,0,0,1-12,3.5v-1.5Zm-14,.5v.75l-5,1.25Zm-9,1.5,1,1.5-1.5,4S56,69.25,57,67.25Zm9,.25v1.25H59.5ZM34.5,82.25c-4,5-8.75,6.5-14.5,4L1,76.75a11.56,11.56,0,0,1,3.5-3C15.5,67.5,26,76.75,34.5,82.25Zm13-3v1l-6.5.5A27.39,27.39,0,0,1,47.5,79.25Zm1.5,0,7,.5-7,.5Zm7,1a21.23,21.23,0,0,0,2,6v1l9-.5v6c-7,1-10-2.5-12.5-8.5l-3-.5-.5-2H49v-1Zm-8.5.5v.5L44.25,81ZM67,84.25v1.5l-6.5.5Zm1.5,0,8.5.5-8.5,1Zm8.5,1.5c0,5.5-3.5,7.25-8.5,7v-6Z" transform="translate(0 -36.25)"/></svg>