<?xml version="1.0" encoding="utf-8"?>
<!-- Generator: Adobe Illustrator 23.0.4, SVG Export Plug-In . SVG Version: 6.00 Build 0)  -->
<svg version="1.1" id="Layer_1" xmlns="http://www.w3.org/2000/svg" xmlns:xlink="http://www.w3.org/1999/xlink" x="0px" y="0px"
	 width="90" height="90" viewBox="50 50 5000 6000" style="enable-background:new 0 0 6553.6 8192;" xml:space="preserve">
<style type="text/css">
	.st0{fill:#FFC10C;}
	.st1{font-family:'HelveticaNeue-Bold';}
	.st2{font-size:0.5461px;}
</style>
<g>
	<path class="st0" d="M4493.9,6030.5c5.1,23.6-9.9,46.7-33.4,51.9c-23.6,5.1-46.7-9.9-51.9-33.4l-128-583.9
		c-5.1-23.6,9.9-46.7,33.4-51.9c23.6-5.1,46.7,9.9,51.9,33.4L4493.9,6030.5z M3489,3895.6l117,300l215.6,160.5
		c19.3,14.3,23.4,41.6,9.1,60.9c-2.8,3.7-6.1,7-9.7,9.5l-215,159.9l-117,300c-8.6,22.4-33.9,33.6-56.4,24.9
		c-11.9-4.6-20.6-13.9-24.9-24.9l-117-300L3075.2,4426c-19.3-14.3-23.4-41.6-9.1-60.9c2.8-3.7,6.1-7,9.7-9.5l215-159.9l117-300
		c8.6-22.4,33.9-33.6,56.4-24.9C3476,3875.3,3484.8,3884.5,3489,3895.6z M3529.3,4238.9l-80.9-207.6l-80.6,207
		c-2.8,7.6-7.9,14.6-15,19.9L3174.1,4391l178.7,132.9c6.4,4.7,11.6,11.2,14.6,19.3l80.9,207.6l80.6-207c2.8-7.6,7.9-14.6,15-19.9
		l178.7-132.9L3544,4258.2C3537.5,4253.5,3532.4,4247,3529.3,4238.9z M2771.1,3222.7l116.7,284.6l215.4,152.3
		c19.7,13.9,24.5,41.1,10.6,60.7c-3.2,4.5-7,8.1-11.1,11l-214.7,151.8l-116.7,284.6c-9.2,22.3-34.6,32.9-56.8,23.7
		c-11.3-4.6-19.4-13.3-23.7-23.7L2574,3883.2L2358.6,3731c-19.7-13.9-24.5-41.1-10.6-60.7c3.2-4.5,7-8.1,11.1-11l214.7-151.8
		l116.7-284.6c9.2-22.3,34.6-32.9,56.8-23.7C2758.6,3203.6,2766.8,3212.4,2771.1,3222.7z M2812,3552.3l-81.3-198.2l-80.4,196
		c-2.9,8.3-8.3,15.8-16.1,21.3l-175.3,124l175.3,124l0,0c6.6,4.6,11.9,11.1,15.2,19.1l81.3,198.2l80.4-196
		c2.9-8.3,8.3-15.8,16.1-21.3l175.3-124l-175.3-124l0,0C2820.7,3566.8,2815.3,3560.2,2812,3552.3z M1696.7,245.1
		c59,117.9,116.2,237.1,174.2,355.6l323.3,191.4c20.8,12.2,27.6,39,15.4,59.7c-4,6.8-9.6,12.1-16.1,15.7l-322.7,190.9l-174.2,355.6
		c-10.6,21.6-36.6,30.5-58.2,20c-9.1-4.5-15.8-11.6-20-20c-55.1-118.6-116.5-237.8-174.2-355.6L1121,867.2
		c-20.8-12.2-27.6-39-15.4-59.7c4-6.8,9.6-12.1,16.1-15.7l322.7-190.9l174.2-355.6c10.6-21.6,36.6-30.5,58.2-20
		C1685.8,229.6,1692.6,236.7,1696.7,245.1z M1798.6,650.8l-141-287.7l-139.7,285c-3.5,8.5-9.6,16.1-18.2,21.1l-270.9,160.3
		l270.9,160.3v0.1c7.1,4.2,13.1,10.4,16.9,18.4l141,287.7l139.7-285c3.5-8.5,9.6-16.1,18.2-21.1l270.9-160.3l-270.9-160.3v-0.1
		C1808.5,665,1802.5,658.7,1798.6,650.8z M4723.5,389.3c44.1,88.3,86.9,177.5,130.4,266.2l241.9,143.2c20.8,12.2,27.6,39,15.4,59.7
		c-4,6.8-9.6,12.1-16.1,15.7l-241.3,142.8l-130.4,266.2c-10.6,21.6-36.6,30.5-58.2,20c-9.1-4.5-15.8-11.6-20-20
		c-44.1-88.3-86.9-177.5-130.4-266.2l-241.9-143.2c-20.8-12.2-27.6-39-15.4-59.7c4-6.8,9.6-12.1,16.1-15.7l241.3-142.8l130.4-266.2
		c10.6-21.6,36.6-30.5,58.2-20C4712.6,373.8,4719.4,380.9,4723.5,389.3z M4781.5,705.5l-97.1-198.2l-95.8,195.5
		c-3.5,8.5-9.6,16.1-18.2,21.1L4380.9,836l189.5,112.2v0.1c7.1,4.2,13.1,10.4,16.9,18.4l97.1,198.2l95.8-195.5
		c3.5-8.5,9.6-16.1,18.2-21.1l189.5-112.2L4798.4,724v-0.1C4791.3,719.7,4785.3,713.5,4781.5,705.5z M2964.5,1871.2
		c0-24.1,19.6-43.7,43.7-43.7s43.7,19.6,43.7,43.7c0,92,36.4,175,95.1,234.9c58.7,59.9,139.7,96.9,229.2,96.9
		c89.5,0,170.5-37,229.2-96.9c58.8-60,95.1-143.1,95.1-234.9c0-143.7-56.9-273.8-149.1-367.8c-92-93.8-219-151.8-359.2-151.8
		c-140.4,0-267.3,58-359.2,151.8c-92.1,93.9-149.1,224-149.1,367.8c0,195.6,77.6,372.6,202.9,500.5
		c125.3,127.8,298.2,206.9,489.3,206.9c191.1,0,364.2-79.1,489.3-206.9c125.4-127.9,202.9-304.9,202.9-500.5
		c0-247.5-98.2-471.3-256.8-633.3C3653.1,1076.1,3434.1,976,3192.1,976c-241.9,0-460.9,100.1-619.4,261.8
		c-158.7,161.9-256.8,385.8-256.8,633.3c0,299.3,118.7,570.2,310.7,766c191.8,195.7,456.8,316.9,749.5,316.9s557.7-121,749.5-316.9
		c192-196,310.8-466.7,310.8-766c0-24.1,19.6-43.7,43.7-43.7c24.1,0,43.7,19.6,43.7,43.7c0,322.9-128.3,615.3-336,827.2
		c-207.7,212-494.7,343.1-811.7,343.1s-603.9-131.1-811.7-343.1c-207.5-211.8-336-504.3-336-827.2c0-271,107.8-516.5,282.1-694.4
		c174.4-178,415.4-288.1,681.6-288.1s507.1,110.1,681.6,288.1c174.3,177.8,282.1,423.4,282.1,694.4c0,219.2-87.2,417.8-228.2,561.6
		c-141.1,144.1-336.1,233.1-551.5,233.1s-410.4-89.1-551.5-233.1c-141-143.9-228.2-342.4-228.2-561.6
		c0-167.3,66.6-318.9,174.3-428.8c107.8-110.1,256.8-178.1,421.4-178.1c164.5,0,313.5,68,421.4,178.1
		c107.7,109.9,174.3,261.5,174.3,428.8c0,115.5-46,220.2-120.4,296.1c-74.6,76-177.5,123.1-291.3,123.1
		c-113.7,0-216.7-47.1-291.3-123.1c-74.4-75.9-120.4-180.7-120.4-296.1H2964.5z M2145,6160.6c-5.1,23.6-28.3,38.6-51.9,33.4
		s-38.6-28.3-33.4-51.9l128-583.9c5.1-23.6,28.3-38.6,51.9-33.4c23.6,5.1,38.6,28.3,33.4,51.9L2145,6160.6z M1266,2292.9
		c149.4,21.4,185.4,276.3,203.4,404.8c1,7.1,2,13.8,3.9,27.2l0.1,1.2l0,0l120.4,1018.3c12.1,10.4,24.6,20.8,37.2,31.1
		c0.4,0.3,0.9,0.7,1.4,1c43.9,34.4,92.1,69,144.3,106.6c388,278.6,984,706.8,781.8,1601c-0.2,1.1-0.4,2.2-0.7,3.3L2366.6,6299
		c-5.5,23.5-28.9,38-52.4,32.5c-23.5-5.5-38-28.9-32.5-52.4l191.4-811.6c0.1-0.5,0.3-1.2,0.4-1.7
		c189.8-838.8-377.9-1246.6-747.5-1512.1c-55.1-39.5-105.8-76-147.3-108.6c-1-0.8-1.9-1.5-2.7-2.3c-17.1-14-33.8-28-49.8-41.9
		c-1.5-1.2-3.1-2.5-4.4-3.8c-91.6-80-167.2-160.1-232.3-239.8l-1-1.2c-112.4-137.7-193.3-273.9-270.8-404.4
		c-8.6-14.6-17.4-29.2-26-43.6c-0.9-1.3-1.7-2.7-2.5-4.2c-83.7-140-167.3-272.2-287-389l87.2,162.4h-0.1c5.9,10.9,7.1,24.2,2.1,36.7
		c-16.5,41.6-57.6,86.4-107.3,117.6c-44.2,27.9-96.6,46.2-146.4,44c-13.1-0.1-26-6.1-34.4-17.4l-60.6-80.3
		c27.7,55.9,55.2,114.3,82.5,172.4c92.4,196.8,183.3,390.3,275.9,461.2c3.1,2.1,5.9,4.6,8.4,7.6
		c195.3,228.3,212.9,388.1,231.8,559.8c2.1,18.7,4.2,37.5,7.3,62.5c2.9,23.9-14.1,45.8-38,48.6c-23.9,2.9-45.8-14.1-48.6-38
		c-2.2-17.6-4.7-40.6-7.3-63.6c-17.3-157.1-33.4-303.3-208.6-509.5c-108.7-85.1-203.3-286.6-299.6-491.7
		c-48-102.1-96.3-205.2-146.6-293.8c0.8,12.7,0.8,28-0.1,49c-5.7,135.3,10.7,298.1,25.1,441.7c10.4,103.2,19.8,196.7,19.7,266.4
		c-0.1,27.1-2.6,53.6-5.2,80.4c-1.6,16.5-3.2,33.1-4.2,50.5c-0.8,13.4-1.4,23.8-2.1,34.3c-8.7,131.9-17.6,266.2,202.6,423.4
		c13.5,9.7,28.7,22,43.4,35.1c15.6,13.9,30.4,28.2,42.2,40.9l642.3,688.3c0.9,1,1.7,2,2.5,2.9h0.1
		c81.2,104.4,131.5,216.6,156.7,335.1c25,117.5,25.1,240.7,6.2,368.2c-13.9,93.3-44.3,187.5-84,283.1c-39,93.7-86.9,189-137,286
		c-11,21.4-37.4,29.8-58.8,18.8c-21.4-11-29.8-37.4-18.8-58.8c48.9-95,95.9-188.2,133.9-279.5c37.1-89.5,65.5-176.9,78.2-262.3
		c17.5-117.7,17.6-230.7-5.1-337.4c-22.4-105.4-67.2-205.5-139.6-298.7l-640.4-686.4c-10.6-11.4-23.3-23.6-36-35
		c-12.2-10.8-24.9-21.2-36.2-29.3c-260-185.5-249.5-344.1-239.2-499.8c0.8-12.2,1.6-24.4,2.1-33.6c1-17,2.7-35.5,4.5-53.8
		c2.4-25,4.8-49.9,4.9-72.2c0.1-64.7-9.1-156.5-19.3-257.9c-14.7-146.5-31.5-312.4-25.4-453.7c1.9-43.6-1.2-54.4-8.3-79.2
		c-1.4-5.1-3.2-11-7.5-28.1c-53.1-205.7,178.5-668,357.3-997.2c9.6-49.2,16.3-106.6,23-165.7c13.8-119.3,28.3-245,72.7-345.8
		c4.9-11.1,13.9-19.2,24.4-23.2l0,0c28.2-10.8,59.6-17.7,92.1-19.2c47.1-2.2,95.9,7.5,139.5,34.2c43.5,26.5,80.9,69.1,105.2,132.7
		c15.5,40.4,25.6,89.8,28.3,149.4c0,1.2,0,2.4,0,3.5c76.7,8.8,153.5,38,222.3,268.5c0.8,2.6,1.3,5.2,1.5,7.8
		c10.2,63.2,16.1,129.8,17,197.2c1,65.9-2.5,132.1-11.3,196.1c-1.3,9.3-2.2,16.5-2.7,22.7V2292.9z M1383.1,2709.7
		c-13.9-98.7-40.6-289-112.3-325.2l94.4,1127.5c39.1,47.3,82.1,94.7,130.2,142L1387,2736.6
		C1386.4,2732.4,1384.9,2721.6,1383.1,2709.7z M1177.1,1891.8c-41.8-138.8-82-182.2-121.6-197.4c2.7,35.7,1.1,73.8-4.3,112.8
		c-5.9,43.6-16.3,88.8-29.7,132.9c2.3,89.8,3.8,180.6,5.2,271.2c4.7,290,9.5,578.2,43.1,858.2c7.5,12.6,15.1,25.2,22.6,38
		c53.2,89.6,108.1,181.9,174,275.4L1180,2347.3c-1.5-18.1-2.2-30.5-1.7-44.6c0.3-13.3,1.7-25.7,4.3-44
		c8.2-60.1,11.6-121.9,10.6-183.1c-1-62.3-6.4-124.3-15.9-183.6V1891.8z M935.9,1923.2c0.3-1.2,0.7-2.4,1.1-3.5
		c12.7-41.2,22.5-83.3,28-124c7.6-56.9,6.8-109.9-6.9-151.1c-11.6-35.1-33.4-61.4-68.8-73.1c-23.3-7.6-52.6-9.9-89.1-5.2
		c-18.4,35.7-47.7,88.7-83.3,153c-24.9,45-53.1,95.8-82.8,150.3c-0.4,0.8-0.8,1.5-1.2,2.3c-173,317.7-397.6,761.6-351.9,938.8
		c0.9,3.4,3.1,11.1,5.4,19.1c7.4-78.1,49.3-137.6,105.3-179.1c30.8-22.7,66-39.9,101.8-51.3c35.6-11.4,72.3-17.1,106.3-17.4h2.2
		c2-0.1,4-0.1,6,0.1c33.8,0.7,65.1,7.1,91.1,19.2c32-64.4,56.1-124.1,74.4-182.4c22.3-71.2,35.7-140.4,43.5-213.5l0.1-1.4
		c3.3-30.5,4.8-45.1,23.8-73.6c35.3-53.2,70.5-128,95.1-206.9L935.9,1923.2z M939.9,2212.7c-0.4-25.2-0.9-50.6-1.3-75.8
		c-8.3,14.7-16.7,28.6-25.2,41.3c-7.2,10.8-8.1,18.6-9.7,34.7l-0.1,1.4c-8.4,79-22.9,153.5-47,230.2c-21.2,67.7-50,137.3-88.8,213.2
		c78.2,77.1,140.9,158.8,197.8,244.1c-18.1-225.9-22-457-25.8-689.2H939.9z M722.3,1375.8c-27.9,71.5-41.4,159.7-52.1,247.7
		c27.4-49.7,48.9-89.5,61.5-115.8h0.1c5.8-12.2,17.1-21.5,31.5-24.1c61.8-11.5,112.4-8.8,153.4,4.6c6.4,2.1,12.6,4.5,18.5,7.1
		c-1.9-5.8-3.7-11.4-5.8-16.7c-16.7-43.8-41.3-72.4-69-89.3c-27.6-16.8-59.3-22.9-90.3-21.5c-16.2,0.8-32.2,3.6-47.5,8L722.3,1375.8
		z M443.4,2720.4c-18.9,14-35.4,30.9-47.7,50.8l1,1.2L559.3,2988c26-2.9,53.5-14.4,78.3-30c27.4-17.3,50.6-38.9,64-59.4
		l-122.8-228.7c-19.2,1.9-39.3,5.9-59.2,12.2c-27,8.6-53.3,21.4-76.2,38.3H443.4z M5282.7,2272.7c-71.7,36.2-98.4,226.4-112.3,325.2
		c-1.6,11.9-3.2,22.7-3.8,26.9l-108.5,917.5c48.1-47.3,91.1-94.7,130.2-142L5282.7,2272.7z M5084.1,2585.9
		c18-128.5,54-383.5,203.4-404.8c-0.5-6.2-1.5-13.5-2.7-22.7c-8.7-64-12.3-130.3-11.3-196.1c1.1-67.3,6.9-133.9,17-197.2
		c0.3-2.6,0.8-5.2,1.5-7.8c68.8-230.5,145.6-259.6,222.3-268.5c0-1.2,0-2.3,0-3.5c2.7-59.6,12.8-109,28.3-149.4
		c24.2-63.6,61.8-106.3,105.2-132.7c43.6-26.7,92.4-36.3,139.5-34.2c32.4,1.4,63.9,8.4,92.1,19.2l0,0c10.5,4,19.6,12,24.4,23.2
		c44.3,100.8,58.9,226.5,72.7,345.8c6.9,59.1,13.4,116.5,23,165.7c178.8,329.2,410.3,791.7,357.3,997.2c-4.4,17-6.1,22.9-7.5,28.1
		c-7.1,24.8-10.2,35.6-8.3,79.2c5.9,141.3-10.7,307.3-25.4,453.7c-10.2,101.4-19.4,193.2-19.3,257.9c0,22.3,2.5,47.2,4.9,72.2
		c1.7,18.4,3.6,36.8,4.5,53.8c0.5,9.2,1.3,21.4,2.1,33.6c10.3,155.8,20.8,314.4-239.2,499.8c-11.4,8.1-24,18.4-36.2,29.3
		c-12.8,11.4-25.4,23.7-36,35l-640.4,686.4c-72.4,93.3-117.2,193.3-139.6,298.7c-22.7,106.7-22.6,219.8-5.1,337.4
		c27.4,184.7,128.7,380.4,234.1,584.4c18.4,35.5,36.9,71.3,45.8,88.7c10.9,21.5,2.4,47.7-19.1,58.8c-21.5,10.9-47.7,2.4-58.8-19.1
		c-21.4-41.9-33.4-65.2-45.3-88.4c-108.9-210.6-213.4-412.8-242.9-611.7c-19-127.5-18.8-250.6,6.2-368.2
		c25.2-118.5,75.5-230.8,156.7-335.1h0.1c0.8-1,1.6-2,2.5-2.9l642.3-688.3c11.8-12.7,26.7-27,42.2-40.9c14.7-13,29.8-25.3,43.4-35.1
		c220.2-157.2,211.4-291.4,202.6-423.4c-0.7-10.5-1.4-20.9-2.1-34.3c-1-17.4-2.5-34-4.2-50.5c-2.6-26.8-5.1-53.4-5.2-80.4
		c-0.1-69.7,9.3-163.2,19.7-266.4c14.4-143.6,30.8-306.5,25.1-441.7c-0.9-21.1-0.9-36.5-0.1-49c-50.1,88.6-98.6,191.6-146.6,293.8
		c-96.3,205.1-190.9,406.7-299.6,491.7c-175.2,206.1-191.4,352.4-208.6,509.4c-2.5,22.8-5,46-7.3,63.6c-2.9,23.9-24.7,41-48.6,38
		c-23.9-2.9-41-24.7-38-48.6c3.2-25,5.2-43.8,7.3-62.5c18.9-171.7,36.5-331.4,231.8-559.8c2.5-2.9,5.4-5.5,8.4-7.6
		c92.6-70.9,183.5-264.3,275.9-461.2c27.3-58.1,54.7-116.4,82.5-172.4l-60.6,80.3c-8.5,11.3-21.4,17.3-34.4,17.4
		c-49.8,2.2-102.2-16.2-146.4-44c-49.7-31.2-90.8-76-107.3-117.6c-4.9-12.5-3.7-25.8,2.1-36.7h-0.1l87.2-162.4
		c-119.7,116.8-203.3,248.9-287,389c-0.8,1.4-1.6,2.8-2.5,4.2c-8.6,14.4-17.3,28.9-26,43.6c-77.4,130.4-158.4,266.5-270.8,404.4
		l-1,1.2c-65.1,79.6-140.7,159.8-232.3,239.8c-1.4,1.4-2.8,2.6-4.4,3.8c-16.1,14-32.8,28-49.8,41.9c-0.9,0.8-1.7,1.5-2.7,2.3
		c-41.5,32.5-92.3,69.1-147.3,108.6c-369.6,265.5-937.5,673.4-747.5,1512.1c0.1,0.5,0.3,1.2,0.4,1.7l215.5,913.9
		c5.5,23.5-9.2,47-32.5,52.4c-23.5,5.5-47-9.2-52.4-32.5l-215.5-913.9c-0.2-1.1-0.4-2.2-0.7-3.3
		c-202.1-894.2,393.9-1322.3,781.8-1601c52.2-37.5,100.4-72.1,144.3-106.6c0.4-0.3,0.9-0.7,1.4-1c12.7-10.4,25.1-20.8,37.2-31.1
		l120.4-1018.3l0,0l0.1-1.2c2-13.4,2.9-20.1,3.9-27.2H5084.1z M5497.9,1582.7c-39.5,15.2-79.8,58.5-121.6,197.4
		c-9.5,59.2-15,121.2-15.9,183.6c-1,61.2,2.4,123,10.6,183.1c2.5,18.4,3.8,30.7,4.3,44c0.4,14.1-0.2,26.5-1.7,44.6L5286.9,3271
		c65.9-93.5,120.8-185.8,174-275.4c7.5-12.7,15.1-25.3,22.6-38c33.6-279.9,38.3-568.2,43.1-858.2c1.5-90.7,2.9-181.4,5.2-271.2
		c-13.4-44.1-23.8-89.3-29.7-132.9c-5.2-39-7-77.1-4.3-112.8V1582.7z M5616.4,1807.9c0.4,1.2,0.8,2.3,1.1,3.5
		c24.7,78.9,59.7,153.7,95.1,206.9c18.9,28.5,20.5,43.1,23.8,73.6l0.1,1.4c7.9,73.2,21.2,142.3,43.5,213.5
		c18.2,58.3,42.5,118.1,74.4,182.4c26-12.1,57.5-18.6,91.1-19.2c2-0.1,3.9-0.2,6-0.1h2.2c34,0.2,70.7,6,106.3,17.4
		c35.9,11.5,71.1,28.5,101.8,51.3c56,41.4,97.9,101,105.3,179.1c2.3-8,4.5-15.7,5.4-19.1c45.7-177.2-179-621.1-351.9-938.8
		c-0.4-0.8-0.9-1.5-1.2-2.3c-29.7-54.5-57.8-105.3-82.8-150.3c-35.6-64.2-65-117.2-83.3-153c-36.4-4.7-65.8-2.4-89.1,5.2
		c-35.4,11.7-57.2,38.1-68.8,73.1c-13.7,41.2-14.5,94.2-6.9,151.1c5.5,40.7,15.3,82.9,28,124L5616.4,1807.9z M5614.8,2025.2
		c-0.4,25.3-0.9,50.6-1.3,75.8c-3.8,232.2-7.5,463.3-25.8,689.2c56.9-85.3,119.7-167.1,197.8-244.1c-38.9-76-67.6-145.5-88.8-213.2
		c-24-76.8-38.4-151.4-47-230.2l-0.1-1.4c-1.7-16.2-2.5-23.8-9.7-34.7c-8.4-12.7-16.9-26.5-25.2-41.3H5614.8z M5883.3,1511.9
		c-10.8-88-24.4-176.2-52.1-247.7c-15.3-4.5-31.3-7.2-47.5-8c-31-1.4-62.8,4.7-90.3,21.5c-27.9,16.9-52.3,45.5-69,89.3
		c-2.1,5.4-4,10.9-5.8,16.7c5.9-2.6,12.1-5,18.5-7.1c41-13.5,91.5-16.1,153.4-4.6c14.3,2.6,25.7,11.9,31.5,24.1h0.1
		c12.6,26.3,34.1,66,61.5,115.8L5883.3,1511.9z M6157.8,2659.6c-12.3-19.9-28.8-36.8-47.7-50.8c-22.9-16.9-49.3-29.7-76.2-38.3
		c-19.9-6.3-40-10.4-59.2-12.2l-122.8,228.7c13.4,20.6,36.6,42.2,64,59.4c24.8,15.6,52.3,27,78.3,30l162.7-215.6l1-1.2H6157.8z"/>
</g>
<text transform="matrix(1 0 0 1 0 6555.2393)" class="st0 st1 st2">Created by Olena Panasovska</text>
<text transform="matrix(1 0 0 1 0 6555.7852)" class="st0 st1 st2">from the Noun Project</text>
</svg>
