<?xml version="1.0" encoding="utf-8"?>
<!-- Svg Vector Icons : http://www.onlinewebfonts.com/icon -->
<!DOCTYPE svg PUBLIC "-//W3C//DTD SVG 1.1//EN" "http://www.w3.org/Graphics/SVG/1.1/DTD/svg11.dtd">
<svg <svg version="1.1" xmlns="http://www.w3.org/2000/svg" xmlns:xlink="http://www.w3.org/1999/xlink" x="0px" y="0px" viewBox="0 0 1000 1000" enable-background="new 0 0 1000 1000" xml:space="preserve">
<metadata> Svg Vector Icons : http://www.onlinewebfonts.com/icon </metadata>
<g><g transform="translate(0.000000,511.000000) scale(0.100000,-0.100000)"><path d="M637.1,3280.4c-183.9-55.2-259.5-92-345.3-165.5c-91.9-81.7-106.3-106.3-145.1-257.5c-45-171.6-24.5-235,112.4-384.1c132.8-143,183.9-228.9,183.9-314.7c0-73.6-94-257.5-190-378c-38.8-47-87.9-118.5-108.3-157.3c-47-94-49-273.8,0-363.7c55.2-106.3,188-222.7,335.1-294.2l136.9-67.4l480.2-14.3c353.5-8.2,543.5-24.5,725.4-57.2c134.9-24.5,275.8-49,312.6-55.2l65.4-12.3V904c0,226.8,116.5,745.8,202.3,899.1c10.2,18.4-22.5,67.4-104.2,151.2c-141,147.1-300.4,382.1-433.2,639.6c-175.7,341.2-376,559.9-617.1,668.2C1109.1,3323.3,810.8,3333.5,637.1,3280.4z"/><path d="M4713.5,3296.7c-322.8-40.9-754-212.5-1074.8-427c-200.2-134.9-598.7-533.3-729.5-731.5c-222.7-335.1-359.6-688.6-416.8-1066.6c-53.1-363.7,16.4-1452.8,118.5-1857.4c89.9-359.6,298.3-645.7,535.3-733.5c255.4-96,388.2-190,474.1-339.2c26.6-45,85.8-194.1,132.8-329c102.2-302.4,153.2-378,306.5-478.1c406.6-263.6,1430.3-265.6,1834.9-4.1c151.2,100.1,206.4,183.9,310.6,482.2c47,134.9,100.1,271.8,116.5,304.4c61.3,120.6,185.9,228.8,337.1,296.3c259.5,114.4,290.1,132.8,396.4,239.1c171.7,167.5,292.2,470,353.5,876.6c71.5,478.1,92,1440.5,36.8,1681.6c-122.6,529.2-347.4,933.8-737.6,1324.1c-255.4,255.4-453.6,396.4-756,541.5C5522.6,3280.4,5126.3,3349.8,4713.5,3296.7z M4147.5,244c175.7-36.8,296.3-104.2,347.4-190c53.1-89.9,79.7-322.9,55.2-490.4c-24.5-171.6-120.6-365.8-226.8-463.8c-114.4-102.2-310.6-192.1-457.7-206.4c-261.5-26.6-641.6,91.9-801,251.3c-114.4,114.4-155.3,214.6-165.5,408.7c-20.4,390.3,167.5,617.1,578.3,700.8C3614.2,280.8,4000.4,276.7,4147.5,244z M6542.3,233.8c382.1-98.1,537.4-302.4,517-682.5c-6.1-134.9-20.4-185.9-67.4-275.8c-104.2-190-331-318.8-647.7-369.8c-206.4-34.7-351.5-14.3-525.1,73.6c-314.6,157.3-467.9,482.2-412.8,874.5c24.5,181.9,59.3,245.2,167.6,308.5C5769.9,276.7,6237.8,311.4,6542.3,233.8z M5095.6-914.6c67.4-32.7,94-83.8,220.7-404.6c118.5-306.5,130.8-376,81.7-467.9c-42.9-83.8-128.7-112.4-306.5-98.1c-81.7,6.1-183.9,2-228.9-6.1c-165.5-38.8-333.1,69.5-333.1,214.6c0,67.4,143,470,226.8,637.5C4834-885.9,4950.5-843,5095.6-914.6z"/><path d="M8804.2,3282.4c-271.8-98.1-494.5-329-688.6-719.2c-114.4-230.9-277.9-467.9-427.1-617.1l-132.8-134.8l69.5-202.3c75.6-220.7,122.6-455.6,145.1-707c10.2-132.8,18.4-157.3,47-149.2c273.8,81.7,735.6,134.9,1176.9,134.9c388.2,2,474,22.5,672.2,163.5c251.3,181.9,298.3,427.1,124.6,668.2c-294.3,404.6-302.4,478.1-73.6,729.5c161.4,177.8,179.8,232.9,134.8,410.7c-36.8,143-75.6,200.2-188,286.1C9472.4,3294.6,9035.1,3364.1,8804.2,3282.4z"/><path d="M7645.6-740.9c-51.1-273.8-202.3-613-339.2-754l-61.3-63.3l138.9-83.8c486.3-290.1,764.2-559.9,1013.5-986.9c134.9-230.9,271.8-365.7,435.2-425c247.2-94,449.5-32.7,547.6,165.5c28.6,57.2,53.1,122.6,53.1,143c0,83.8,96,279.9,255.4,517c212.5,316.7,239.1,406.6,190,647.7c-57.2,273.8-149.2,408.7-331,488.3c-87.9,38.8-159.4,47-472,59.3l-367.8,16.3l-490.4,163.5c-269.7,89.9-504.7,169.6-523.1,177.8C7668.1-665.3,7657.9-679.6,7645.6-740.9z"/><path d="M1771.1-855.3L1291-1016.7l-367.8-16.3c-316.7-12.3-382.1-20.4-476.1-61.3c-136.9-59.3-235-173.7-288.1-335.1c-104.2-314.6-77.7-467.9,138.9-784.6c177.8-255.4,214.5-329,257.5-496.5c18.4-71.5,55.2-167.5,81.7-212.5c96-167.5,300.4-216.6,535.4-128.7c151.2,55.2,337.1,239.1,433.2,425c169.6,326.9,447.5,617.1,837.8,872.5c130.8,85.8,245.2,163.5,255.4,171.6c10.2,8.2-18.4,57.2-63.3,108.3c-108.3,122.6-218.6,353.5-286.1,594.6c-30.6,106.3-65.4,192.1-77.6,192.1C2261.5-689.8,2034.7-765.4,1771.1-855.3z"/></g></g>
</svg>