<?xml version="1.0" encoding="utf-8"?>
<!-- Generator: Adobe Illustrator 23.0.4, SVG Export Plug-In . SVG Version: 6.00 Build 0)  -->
<svg version="1.1" id="Layer_1" xmlns="http://www.w3.org/2000/svg" xmlns:xlink="http://www.w3.org/1999/xlink" x="0px" y="0px"
	 height="100" width="100%" viewBox="0 -25 100 115" style="enable-background:new 0 0 100 125;" xml:space="preserve">
<path d="M55.1,50.5c-0.4,0.4-0.4,1,0,1.4c0.2,0.2,0.5,0.3,0.7,0.3c0.2,0,0.5-0.1,0.7-0.3c0.3-0.3,7.9-7.1,21.5-1.2
	c0.5,0.2,1.1,0,1.3-0.5c0.2-0.5,0-1.1-0.5-1.3C63.9,42.5,55.4,50.2,55.1,50.5z"/>
<path d="M78.8,56.9c-14.9-6.5-23.3,1.2-23.7,1.6c-0.4,0.4-0.4,1,0,1.4c0.2,0.2,0.5,0.3,0.7,0.3c0.2,0,0.5-0.1,0.7-0.3
	c0.3-0.3,7.9-7.1,21.5-1.2c0.5,0.2,1.1,0,1.3-0.5C79.5,57.7,79.3,57.1,78.8,56.9z"/>
<path d="M78.8,64.9c-14.9-6.5-23.3,1.2-23.7,1.6c-0.4,0.4-0.4,1,0,1.4c0.2,0.2,0.5,0.3,0.7,0.3c0.2,0,0.5-0.1,0.7-0.3
	c0.3-0.3,7.9-7.1,21.5-1.2c0.5,0.2,1.1,0,1.3-0.5C79.5,65.7,79.3,65.1,78.8,64.9z"/>
<path d="M21.5,42.7c0.3,0.2,0.6,0.2,0.9,0.1c13.5-5.9,20.2,0.9,20.5,1.2c0.2,0.2,0.5,0.3,0.7,0.3c0.1,0,0.2,0,0.4-0.1
	c0.4-0.2,0.6-0.5,0.6-0.9v-16c0-0.3-0.1-0.5-0.3-0.7c-0.3-0.3-7.8-8.1-22.7-1.6c-0.4,0.2-0.6,0.5-0.6,0.9v16
	C21,42.2,21.2,42.5,21.5,42.7z M23,26.6c11.8-4.9,18.2-0.1,19.6,1.2v13.5c-1.8-1.2-5.1-2.8-9.8-2.8c-2.8,0-6,0.5-9.8,2
	C23,40.4,23,26.6,23,26.6z"/>
<path d="M22.4,50.8c13.5-5.9,20.2,0.9,20.5,1.2c0.2,0.2,0.5,0.3,0.7,0.3c0.2,0,0.5-0.1,0.7-0.3c0.4-0.4,0.4-1,0-1.4
	c-0.3-0.3-7.8-8.1-22.7-1.6c-0.5,0.2-0.7,0.8-0.5,1.3C21.3,50.8,21.9,51,22.4,50.8z"/>
<path d="M22.4,58.8c13.5-5.9,20.2,0.9,20.5,1.2c0.2,0.2,0.5,0.3,0.7,0.3c0.2,0,0.5-0.1,0.7-0.3c0.4-0.4,0.4-1,0-1.4
	c-0.3-0.3-7.8-8.1-22.7-1.6c-0.5,0.2-0.7,0.8-0.5,1.3C21.3,58.7,21.9,59,22.4,58.8z"/>
<path d="M42.9,67.9c0.2,0.2,0.5,0.3,0.7,0.3c0.2,0,0.5-0.1,0.7-0.3c0.4-0.4,0.4-1,0-1.4c-0.3-0.3-7.8-8.1-22.7-1.6
	c-0.5,0.2-0.7,0.8-0.5,1.3c0.2,0.5,0.8,0.7,1.3,0.5C36,60.8,42.6,67.6,42.9,67.9z"/>
<path d="M89,15.8h-3.8v-0.7c0-0.4-0.2-0.7-0.6-0.9C65.4,5,53,13.5,50,16.1c-1.3-1.1-4.2-3.2-8.6-4.7c-5.5-1.8-14.4-2.7-26,2.8
	c-0.3,0.2-0.6,0.5-0.6,0.9v0.7H11c-0.6,0-1,0.4-1,1v69.1c0,0.6,0.4,1,1,1h33.8c1.1,1.9,3.1,3.1,5.3,3.1s4.3-1.2,5.3-3.1H89
	c0.6,0,1-0.4,1-1V16.8C90,16.2,89.6,15.8,89,15.8z M83.2,78.2c-16.8-7.4-28.1-1.3-32.2,1.7c0-21.3-0.1-58,0-62.1
	c0.9-0.9,4.2-3.6,9.7-5v26.5c0,0.4,0.2,0.7,0.5,0.9c0.3,0.2,0.7,0.2,1,0l4.9-2.9l4.9,2.9c0.2,0.1,0.3,0.1,0.5,0.1
	c0.2,0,0.3,0,0.5-0.1c0.3-0.2,0.5-0.5,0.5-0.9V12.5c3,0.6,6.2,1.6,9.7,3.2L83.2,78.2L83.2,78.2z M71.5,12.2v25.3l-3.9-2.3
	c-0.3-0.2-0.7-0.2-1,0l-3.9,2.3V12.4C65.2,11.9,68.1,11.8,71.5,12.2z M16.8,15.7c19-8.8,30.3,0.3,32.2,2.1c-0.1,5.1,0,43.1,0,62.1
	c-1.5-1.1-4.1-2.7-7.6-3.9c-2.4-0.8-5.4-1.4-9-1.4c-4.4,0-9.6,0.9-15.6,3.5C16.8,78.2,16.8,15.7,16.8,15.7z M88,84.9H54.9
	c-0.4,0-0.8,0.2-0.9,0.6C53.3,87,51.8,88,50.1,88s-3.2-1-3.8-2.5c-0.2-0.4-0.5-0.6-0.9-0.6H12V17.8h2.8v62c0,0.3,0.2,0.7,0.5,0.8
	c0.3,0.2,0.7,0.2,1,0.1c20.9-10,32.6,1.6,33,2.1c0,0,0,0,0,0c0.2,0.2,0.4,0.3,0.7,0.3c0,0,0,0,0,0c0.1,0,0.2,0,0.3-0.1c0,0,0,0,0,0
	c0.1-0.1,0.2-0.1,0.3-0.2c0,0,0,0,0,0c0.1-0.1,12.1-12.1,33-2.1c0.3,0.1,0.7,0.1,1-0.1c0.3-0.2,0.5-0.5,0.5-0.8v-62H88V84.9z"/>
</svg>
